{"title":"Lost Kingdom of the Maya's 2004 DVDrip English Klam","uid":6900375,"size":527300358,"categoryP":"video","categoryS":"movies","magnet":"?xt=urn:btih:c6064574328759924e71488d4baccf4fa7dceea0&amp;dn=Lost+Kingdom+of+the+Maya%5C%27s+2004+DVDrip+English+Klam&amp;tr=udp%3A%2F%2Ftracker.openbittorrent.com%3A80&amp;tr=udp%3A%2F%2Fopen.demonii.com%3A1337&amp;tr=udp%3A%2F%2Ftracker.coppersurfer.tk%3A6969&amp;tr=udp%3A%2F%2Fexodus.desync.com%3A6969","seeders":1,"leechers":0,"uploader":"Klambake","files":-1,"time":1324377405,"description":"Verloren Maya Koninkrijk en Lang voor Columbus kwam in de jungles van Mexico en Midden-Amerika de Maya-cultuur tot bloei, een der hoogst ontwikkelde beschavingen van die tijd. Deze vooruit strevende gemeenschap van priesters, astronomen,...\n\nOver a thousand years ago, one earth's most advanced societies vanished, leaving behind temples, the ruins of cities, and works of art in the now-overgrown jungles of present-day Mexico and Central America. We call them the Maya, and the abrupt end of their civilization is still a mystery...\n\n------------------------ Dutch Friends ------------------------\n---------------------------------------------------------------\n- Bezoek ook eens mijn vrienden op: &lt;a href=&quot; http://www.Film-Test.nl&quot; rel=&quot;nofollow&quot; target=&quot;_NEW&quot;&gt; http://www.Film-Test.nl&lt;/a&gt; --\n----- voor mijn Nederlandse Sync. ondertitels ---- en meer ----\n------- http://www.Film-Test.nl ---- voor Films en meer -------\n---------------------------------------------------------------\n\nGeneral:\n\nComplete name                    : Lost Kingdom of the Maya's\\Lost Kingdom of the Maya's.avi\nFormat                           : AVI\nFormat/Info                      : Audio Video Interleave\nFile size                        : 503 MiB\nDuration                         : 51mn 43s\nOverall bit rate                 : 1 359 Kbps\n\nVideo:\n\nFormat                           : MPEG-4 Visual\nFormat profile                   : Simple@L3\nFormat settings, BVOP            : No\nFormat settings, QPel            : No\nFormat settings, GMC             : No warppoints\nFormat settings, Matrix          : Default (H.263)\nCodec ID                         : XVID\nCodec ID/Hint                    : XviD\nDuration                         : 51mn 43s\nBit rate                         : 1 156 Kbps\nWidth                            : 640 pixels\nHeight                           : 480 pixels\nDisplay aspect ratio             : 4:3\nFrame rate                       : 25.000 fps\nColor space                      : YUV\nChroma subsampling               : 4:2:0\nBit depth                        : 8 bits\nScan type                        : Progressive\nCompression mode                 : Lossy\nBits/(Pixel*Frame)               : 0.151\nStream size                      : 428 MiB (85%)\nWriting library                  : XviD 1.1.2 (UTC 2006-11-01)\n\nAudio:\n\nFormat                           : AC-3\nFormat/Info                      : Audio Coding 3\nMode extension                   : CM (complete main)\nCodec ID                         : 2000\nDuration                         : 51mn 43s\nBit rate mode                    : Constant\nBit rate                         : 192 Kbps\nChannel(s)                       : 2 channels\nChannel positions                : Front: L R\nSampling rate                    : 48.0 KHz\nBit depth                        : 16 bits\nCompression mode                 : Lossy\nStream size                      : 71.0 MiB (14%)\nAlignment                        : Aligned on interleaves\nInterleave, duration             : 32 ms (0.80 video frame)\nInterleave, preload duration     : 576 ms\n\n","torrent":{"xt":"urn:btih:c6064574328759924e71488d4baccf4fa7dceea0","amp;dn":"Lost+Kingdom+of+the+Maya%5C%27s+2004+DVDrip+English+Klam","amp;tr":["udp%3A%2F%2Ftracker.openbittorrent.com%3A80","udp%3A%2F%2Fopen.demonii.com%3A1337","udp%3A%2F%2Ftracker.coppersurfer.tk%3A6969","udp%3A%2F%2Fexodus.desync.com%3A6969"],"infoHash":"c6064574328759924e71488d4baccf4fa7dceea0","infoHashBuffer":{"type":"Buffer","data":[198,6,69,116,50,135,89,146,78,113,72,141,75,172,207,79,167,220,238,160]},"announce":[],"urlList":[]}}